<svg width="68" height="84" viewBox="0 0 68 84" fill="none" xmlns="http://www.w3.org/2000/svg">
<mask id="mask0_186_21723" style="mask-type:luminance" maskUnits="userSpaceOnUse" x="0" y="0" width="68" height="84">
<path d="M62 2H6C4.93913 2 3.92172 2.42143 3.17157 3.17157C2.42143 3.92172 2 4.93913 2 6V78C2 79.0609 2.42143 80.0783 3.17157 80.8284C3.92172 81.5786 4.93913 82 6 82H62C63.0609 82 64.0783 81.5786 64.8284 80.8284C65.5786 80.0783 66 79.0609 66 78V6C66 4.93913 65.5786 3.92172 64.8284 3.17157C64.0783 2.42143 63.0609 2 62 2Z" fill="white" stroke="white" stroke-width="4" stroke-linecap="round" stroke-linejoin="round"/>
<path d="M20 54H48M20 66H34M46 20L30 36L22 28" stroke="black" stroke-width="4" stroke-linecap="round" stroke-linejoin="round"/>
</mask>
<g mask="url(#mask0_186_21723)">
<path d="M-14 -6H82V90H-14V-6Z" fill="#F5A800"/>
</g>
</svg>
